<svg width="287" height="70" viewBox="0 0 287 70" fill="none" xmlns="http://www.w3.org/2000/svg">
<g clip-path="url(#clip0_445_20037)">
<path d="M87.546 26.0296C88.5825 26.0296 89.4717 26.1961 90.2137 26.5295C90.9559 26.8627 91.5604 27.3344 92.0274 27.9443C92.4944 28.5543 92.8399 29.2554 93.0639 30.0478C93.2877 30.8401 93.3997 31.6891 93.3997 32.5945V33.3869C93.3997 35.6758 92.8048 37.4019 91.6149 38.5653C90.4249 39.7287 88.672 40.3103 86.3561 40.3103C85.8827 40.3103 85.4157 40.2977 84.9551 40.2726C84.4944 40.2474 84.0466 40.2098 83.6116 40.1595V37.5749C84.0338 37.6126 84.4881 37.6472 84.9742 37.6787C85.4604 37.7101 85.9595 37.7258 86.4712 37.7258C87.4949 37.7258 88.3009 37.5592 88.8894 37.2259C89.4781 36.8926 89.894 36.3927 90.1369 35.7262C90.3801 35.0596 90.5016 34.2358 90.5016 33.2548V31.821L91.1926 31.3683C91.1798 32.3116 90.9847 33.1007 90.6072 33.7359C90.2297 34.371 89.7084 34.8458 89.0431 35.1601C88.3777 35.4746 87.61 35.6318 86.74 35.6318C85.7547 35.6318 84.904 35.44 84.1874 35.0565C83.4709 34.6728 82.9207 34.1352 82.5368 33.4435C82.153 32.7517 81.9611 31.9342 81.9611 30.991C81.9611 29.9975 82.1914 29.1265 82.6519 28.3782C83.1127 27.6299 83.7619 27.0514 84.6 26.6427C85.4381 26.2339 86.4201 26.0296 87.546 26.0296ZM87.6419 28.5952C87.079 28.5952 86.6024 28.6958 86.2122 28.8969C85.822 29.0982 85.5213 29.3718 85.3101 29.7176C85.099 30.0635 84.9935 30.4691 84.9935 30.9345C84.9935 31.4123 85.0958 31.8242 85.3006 32.1701C85.5052 32.5159 85.7963 32.7863 86.1738 32.9813C86.5512 33.1762 87.015 33.2737 87.5653 33.2737C88.0642 33.2737 88.5216 33.1887 88.9375 33.0189C89.3533 32.8492 89.6828 32.5914 89.9259 32.2456C90.169 31.8997 90.2906 31.4627 90.2906 30.9345C90.2906 30.4816 90.1914 30.0792 89.993 29.727C89.7948 29.3749 89.4972 29.0982 89.1006 28.8969C88.704 28.6958 88.2178 28.5952 87.6419 28.5952Z" fill="#1E1515"/>
<path d="M100.614 40.3295C99.5523 40.3295 98.695 40.2005 98.0425 39.9428C97.3899 39.6849 96.9134 39.2511 96.6127 38.641C96.312 38.0311 96.1617 37.2041 96.1617 36.1603V27.0674H99.0213V36.2735C99.0213 36.764 99.1524 37.1382 99.4148 37.3959C99.677 37.6538 100.051 37.7827 100.537 37.7827H102.092V40.3295L100.614 40.3295ZM94.5687 32.0666V29.8594H102.092V32.0666H94.5687Z" fill="#1E1515"/>
<path d="M104.166 40.1975V26.426H107.237V34.3682H106.776C106.776 33.3244 106.91 32.444 107.179 31.7271C107.448 31.0102 107.844 30.4662 108.369 30.0952C108.894 29.7243 109.552 29.5387 110.346 29.5387H110.48C111.644 29.5387 112.534 29.9443 113.148 30.7555C113.762 31.5667 114.069 32.752 114.069 34.3116V40.1975H110.998V34.1229C110.998 33.557 110.829 33.1011 110.49 32.7552C110.151 32.4093 109.706 32.2364 109.156 32.2364C108.58 32.2364 108.116 32.4187 107.764 32.7835C107.412 33.1482 107.237 33.6324 107.237 34.2361V40.1974L104.166 40.1975Z" fill="#1E1515"/>
<path d="M120.881 40.1975V26.426H125.218L128.424 34.1607H128.788L131.955 26.426H136.369V40.1975H133.26V28.4445L133.701 28.4823L129.997 37.4055H127.003L123.28 28.4823L123.759 28.4445V40.1975H120.881Z" fill="#1E1515"/>
<path d="M145.698 40.197V37.1408H145.18V33.8206C145.18 33.2924 145.052 32.8963 144.796 32.6322C144.54 32.368 144.13 32.2359 143.567 32.2359C143.286 32.2359 142.915 32.2422 142.454 32.2548C141.994 32.2675 141.52 32.2862 141.034 32.3114C140.548 32.3366 140.106 32.3617 139.71 32.3869V29.8401C140.004 29.815 140.35 29.7898 140.746 29.7647C141.143 29.7395 141.552 29.7206 141.974 29.7081C142.397 29.6955 142.793 29.6892 143.164 29.6892C144.239 29.6892 145.144 29.8401 145.88 30.1419C146.616 30.4438 147.176 30.8997 147.559 31.5096C147.943 32.1197 148.135 32.9026 148.135 33.8584V40.197L145.698 40.197ZM142.339 40.4611C141.584 40.4611 140.922 40.3291 140.353 40.0649C139.783 39.8009 139.339 39.4204 139.019 38.9236C138.699 38.4269 138.539 37.8325 138.539 37.1408C138.539 36.3863 138.737 35.7668 139.134 35.2827C139.531 34.7985 140.087 34.44 140.804 34.2074C141.52 33.9747 142.346 33.8584 143.28 33.8584H145.525V35.5374H143.26C142.723 35.5374 142.31 35.6663 142.022 35.9241C141.735 36.1819 141.591 36.5309 141.591 36.9711C141.591 37.3861 141.735 37.7226 142.022 37.9803C142.31 38.2382 142.723 38.3671 143.26 38.3671C143.606 38.3671 143.916 38.3074 144.191 38.1879C144.466 38.0684 144.693 37.864 144.872 37.5748C145.052 37.2855 145.154 36.8831 145.18 36.3675L145.909 37.1221C145.845 37.8388 145.669 38.4426 145.381 38.9331C145.093 39.4235 144.697 39.8009 144.191 40.0649C143.686 40.3291 143.068 40.4611 142.339 40.4611Z" fill="#1E1515"/>
<path d="M150.746 40.1979V29.8599H153.184V34.2931H153.126C153.126 32.8343 153.443 31.7086 154.076 30.9163C154.71 30.1239 155.628 29.7278 156.83 29.7278H157.233V32.3312H156.466C155.621 32.3312 154.969 32.5544 154.508 33.0009C154.047 33.4474 153.817 34.092 153.817 34.9346V40.1979L150.746 40.1979Z" fill="#1E1515"/>
<path d="M166.231 40.1975L162.911 35.368H161.433L165.713 29.8594H168.937L164.907 34.9907L164.945 33.5192L169.686 40.1974L166.231 40.1975ZM158.823 40.1975V26.426H161.894V40.1975H158.823Z" fill="#1E1515"/>
<path d="M175.907 40.5552C175.011 40.5552 174.221 40.4042 173.537 40.1025C172.852 39.8006 172.283 39.3949 171.829 38.8856C171.375 38.3763 171.029 37.804 170.792 37.1689C170.556 36.5338 170.437 35.883 170.437 35.2163V34.8391C170.437 34.1474 170.556 33.4839 170.792 32.8488C171.029 32.2137 171.371 31.6445 171.819 31.1415C172.267 30.6385 172.827 30.2391 173.498 29.9436C174.17 29.648 174.935 29.5002 175.792 29.5002C176.918 29.5002 177.868 29.7486 178.642 30.2454C179.416 30.7422 180.008 31.3899 180.417 32.1886C180.827 32.9872 181.031 33.8581 181.031 34.8013V35.8201H171.723V34.1033H179.17L178.172 34.8957C178.172 34.2794 178.082 33.7511 177.903 33.311C177.724 32.8708 177.459 32.5344 177.107 32.3018C176.755 32.0691 176.316 31.9527 175.792 31.9527C175.255 31.9527 174.8 32.0722 174.429 32.3112C174.058 32.5501 173.777 32.8991 173.585 33.3582C173.393 33.8172 173.297 34.3801 173.297 35.0466C173.297 35.6629 173.387 36.2005 173.566 36.6595C173.745 37.1186 174.026 37.4739 174.41 37.7254C174.794 37.977 175.293 38.1027 175.907 38.1027C176.47 38.1027 176.931 37.9959 177.289 37.782C177.647 37.5682 177.89 37.3042 178.018 36.9897H180.839C180.686 37.6814 180.385 38.2977 179.938 38.8384C179.49 39.3793 178.927 39.8006 178.249 40.1025C177.57 40.4042 176.79 40.5552 175.907 40.5552Z" fill="#1E1515"/>
<path d="M187.843 40.3295C186.781 40.3295 185.924 40.2005 185.271 39.9428C184.619 39.6849 184.142 39.2511 183.841 38.641C183.541 38.0311 183.39 37.2041 183.39 36.1603V27.0674H186.25V36.2735C186.25 36.764 186.381 37.1382 186.643 37.3959C186.906 37.6538 187.28 37.7827 187.766 37.7827H189.321V40.3295L187.843 40.3295ZM181.797 32.0666V29.8594H189.321V32.0666H181.797Z" fill="#1E1515"/>
<path d="M191.395 43.9703V29.8592H193.832V34.3302L193.506 34.3114C193.557 33.28 193.775 32.4092 194.159 31.6986C194.542 30.988 195.061 30.4534 195.713 30.095C196.366 29.7367 197.101 29.5574 197.92 29.5574C198.649 29.5574 199.312 29.6895 199.907 29.9535C200.502 30.2177 201.013 30.5855 201.442 31.0572C201.871 31.5288 202.197 32.0821 202.421 32.7174C202.645 33.3525 202.757 34.0472 202.757 34.8018V35.2358C202.757 35.9778 202.648 36.6727 202.43 37.3204C202.213 37.9681 201.896 38.5309 201.48 39.0087C201.065 39.4867 200.559 39.8608 199.964 40.1313C199.369 40.4017 198.688 40.5368 197.92 40.5368C197.127 40.5368 196.414 40.3764 195.78 40.0558C195.147 39.735 194.638 39.2446 194.254 38.5843C193.871 37.924 193.659 37.0845 193.621 36.0659L194.466 37.1977V43.9702L191.395 43.9703ZM197.057 38.0089C197.581 38.0089 198.039 37.8832 198.429 37.6317C198.819 37.3801 199.123 37.0279 199.34 36.5752C199.558 36.1225 199.667 35.6006 199.667 35.0094C199.667 34.4183 199.558 33.9027 199.34 33.4624C199.123 33.0223 198.822 32.6796 198.438 32.4343C198.055 32.1891 197.594 32.0664 197.057 32.0664C196.596 32.0664 196.161 32.1733 195.751 32.3872C195.342 32.601 195.013 32.9059 194.763 33.3022C194.514 33.6983 194.389 34.1794 194.389 34.7453V35.4433C194.389 35.9841 194.52 36.4463 194.782 36.8299C195.045 37.2135 195.38 37.5059 195.79 37.7072C196.199 37.9083 196.621 38.0089 197.057 38.0089Z" fill="#1E1515"/>
<path d="M205.019 40.1975V26.4261H208.089L208.109 40.1975H205.019ZM203.771 28.6521V26.426L208.089 26.4261L208.109 28.6521H203.771Z" fill="#1E1515"/>
<path d="M217.286 40.197V37.1408H216.768V33.8206C216.768 33.2924 216.64 32.8963 216.384 32.6322C216.128 32.368 215.719 32.2359 215.156 32.2359C214.874 32.2359 214.503 32.2422 214.042 32.2548C213.582 32.2675 213.108 32.2862 212.622 32.3114C212.136 32.3366 211.695 32.3617 211.298 32.3869V29.8401C211.592 29.815 211.938 29.7898 212.334 29.7647C212.731 29.7395 213.14 29.7206 213.563 29.7081C213.985 29.6955 214.381 29.6892 214.753 29.6892C215.827 29.6892 216.733 29.8401 217.468 30.1419C218.204 30.4438 218.764 30.8997 219.148 31.5096C219.531 32.1197 219.723 32.9026 219.723 33.8584V40.197L217.286 40.197ZM213.927 40.4611C213.172 40.4611 212.51 40.3291 211.941 40.0649C211.372 39.8009 210.927 39.4204 210.607 38.9236C210.287 38.4269 210.127 37.8325 210.127 37.1408C210.127 36.3863 210.326 35.7668 210.722 35.2827C211.119 34.7985 211.675 34.44 212.392 34.2074C213.108 33.9747 213.934 33.8584 214.868 33.8584H217.113V35.5374H214.849C214.311 35.5374 213.898 35.6663 213.611 35.9241C213.323 36.1819 213.179 36.5309 213.179 36.9711C213.179 37.3861 213.323 37.7226 213.611 37.9803C213.898 38.2382 214.311 38.3671 214.849 38.3671C215.194 38.3671 215.504 38.3074 215.779 38.1879C216.054 38.0684 216.281 37.864 216.461 37.5748C216.64 37.2855 216.742 36.8831 216.768 36.3675L217.497 37.1221C217.433 37.8388 217.257 38.4426 216.969 38.9331C216.681 39.4235 216.285 39.8009 215.779 40.0649C215.274 40.3291 214.657 40.4611 213.927 40.4611Z" fill="#1E1515"/>
<path d="M227.054 40.5552C226.145 40.5552 225.355 40.4074 224.683 40.1119C224.012 39.8163 223.452 39.4169 223.004 38.9139C222.556 38.4109 222.223 37.8418 222.006 37.2067C221.789 36.5716 221.68 35.9143 221.68 35.2352V34.8768C221.68 34.1725 221.795 33.4965 222.025 32.8488C222.256 32.2011 222.595 31.6258 223.042 31.1226C223.49 30.6196 224.05 30.2235 224.722 29.9342C225.393 29.6449 226.164 29.5002 227.034 29.5002C227.981 29.5002 228.819 29.6795 229.549 30.0379C230.278 30.3963 230.86 30.8962 231.295 31.5377C231.73 32.1791 231.973 32.9149 232.024 33.7448H229.011C228.96 33.2795 228.771 32.8866 228.445 32.5658C228.119 32.2452 227.649 32.0848 227.034 32.0848C226.523 32.0848 226.097 32.2106 225.758 32.462C225.419 32.7136 225.166 33.0594 225 33.4997C224.834 33.9398 224.751 34.4617 224.751 35.0655C224.751 35.6188 224.827 36.1187 224.981 36.5653C225.134 37.0117 225.381 37.3575 225.72 37.6028C226.059 37.8481 226.503 37.9706 227.054 37.9706C227.463 37.9706 227.812 37.8984 228.1 37.7537C228.387 37.6091 228.618 37.4078 228.79 37.1501C228.963 36.8922 229.069 36.5936 229.107 36.254H232.101C232.063 37.1092 231.82 37.8606 231.372 38.5083C230.924 39.156 230.329 39.6591 229.587 40.0176C228.845 40.3759 228 40.5552 227.054 40.5552Z" fill="#1E1515"/>
<path d="M238.876 40.5552C237.98 40.5552 237.19 40.4042 236.505 40.1025C235.821 39.8006 235.251 39.3949 234.797 38.8856C234.343 38.3763 233.998 37.804 233.761 37.1689C233.524 36.5338 233.406 35.883 233.406 35.2163V34.8391C233.406 34.1474 233.524 33.4839 233.761 32.8488C233.998 32.2137 234.34 31.6445 234.788 31.1415C235.236 30.6385 235.795 30.2391 236.467 29.9436C237.139 29.648 237.903 29.5002 238.76 29.5002C239.886 29.5002 240.836 29.7486 241.611 30.2454C242.385 30.7422 242.976 31.3899 243.386 32.1886C243.795 32.9872 244 33.8581 244 34.8013V35.8201H234.692V34.1033H242.138L241.14 34.8957C241.14 34.2794 241.051 33.7511 240.872 33.311C240.693 32.8708 240.427 32.5344 240.075 32.3018C239.723 32.0691 239.285 31.9527 238.76 31.9527C238.223 31.9527 237.769 32.0722 237.398 32.3112C237.027 32.5501 236.745 32.8991 236.553 33.3582C236.361 33.8172 236.265 34.3801 236.265 35.0466C236.265 35.6629 236.355 36.2005 236.534 36.6595C236.713 37.1186 236.995 37.4739 237.379 37.7254C237.762 37.977 238.262 38.1027 238.876 38.1027C239.439 38.1027 239.899 37.9959 240.257 37.782C240.616 37.5682 240.859 37.3042 240.987 36.9897H243.808C243.655 37.6814 243.354 38.2977 242.906 38.8384C242.458 39.3793 241.895 39.8006 241.217 40.1025C240.539 40.4042 239.758 40.5552 238.876 40.5552Z" fill="#1E1515"/>
<path fill-rule="evenodd" clip-rule="evenodd" d="M52.0576 26.7163L45.1586 20.0002H70.9983V45.155L63.814 38.1611L63.9172 38.2616V26.7163H52.0576Z" fill="#FF0000"/>
<path fill-rule="evenodd" clip-rule="evenodd" d="M46.1154 34.5407L39.9999 28.5872H52.3434V38.1608H61.9956V49.9998L55.8801 44.0465H46.1154L46.1154 34.5407ZM54.3063 28.5872H61.9956V36.2139H54.3063V28.5872Z" fill="#9A0019"/>
<path fill-rule="evenodd" clip-rule="evenodd" d="M61.9945 36.2141H54.3053V28.5874H61.9945V36.2141Z" fill="#FF0000"/>
</g>
<path d="M246.34 35C246.34 35.3163 246.217 35.6195 245.998 35.8432C245.778 36.0668 245.481 36.1924 245.17 36.1924C244.86 36.1924 244.562 36.0668 244.343 35.8432C244.123 35.6195 244 35.3163 244 35C244 34.6838 244.123 34.3805 244.343 34.1569C244.562 33.9332 244.86 33.8076 245.17 33.8076C245.481 33.8076 245.778 33.9332 245.998 34.1569C246.217 34.3805 246.34 34.6838 246.34 35Z" fill="#474E5D"/>
<defs>
<clipPath id="clip0_445_20037">
<rect width="204" height="30" fill="white" transform="translate(40 20)"/>
</clipPath>
</defs>
</svg>
