<svg width="209" height="61" viewBox="0 0 209 61" fill="none" xmlns="http://www.w3.org/2000/svg">
<path d="M51.2194 41C50.1563 41.1993 49.1122 41.2848 48.0871 41.2563C47.0714 41.2373 46.1602 41.0617 45.3534 40.7295C44.5561 40.3878 43.9486 39.842 43.531 39.0921C43.1513 38.3897 42.952 37.6778 42.933 36.9565C42.914 36.2256 42.9045 35.3998 42.9045 34.4791V21.3518H46.7772V34.2513C46.7772 34.8493 46.7819 35.3903 46.7914 35.8744C46.8104 36.349 46.9101 36.7287 47.0904 37.0134C47.4321 37.5545 47.9779 37.8487 48.7278 37.8962C49.4776 37.9436 50.3082 37.9057 51.2194 37.7823V41ZM40.2848 28.6131V25.6232H51.2194V28.6131H40.2848ZM60.9592 41.4271C59.3835 41.4271 57.9929 41.0902 56.7875 40.4163C55.5915 39.7328 54.6518 38.7979 53.9684 37.6114C53.2945 36.4154 52.9575 35.0486 52.9575 33.5109C52.9575 31.8309 53.2897 30.3691 53.9542 29.1257C54.6186 27.8822 55.5346 26.9188 56.7021 26.2354C57.8696 25.5425 59.2127 25.196 60.7314 25.196C62.345 25.196 63.7165 25.5757 64.8461 26.3351C65.9756 27.0944 66.8109 28.1622 67.3519 29.5386C67.893 30.9149 68.0828 32.5333 67.9214 34.3937H64.0915V32.9699C64.0915 31.4037 63.8399 30.2789 63.3369 29.5955C62.8433 28.9026 62.0317 28.5562 60.9022 28.5562C59.5828 28.5562 58.6099 28.9596 57.9835 29.7664C57.3665 30.5637 57.058 31.7454 57.058 33.3116C57.058 34.7449 57.3665 35.8554 57.9835 36.6432C58.6099 37.4216 59.5259 37.8107 60.7314 37.8107C61.4907 37.8107 62.1409 37.6446 62.6819 37.3124C63.223 36.9802 63.6359 36.5009 63.9206 35.8744L67.7933 36.9849C67.2143 38.3897 66.2983 39.4813 65.0454 40.2596C63.802 41.038 62.4399 41.4271 60.9592 41.4271ZM55.862 34.3937V31.5176H66.0563V34.3937H55.862ZM71.1078 41L71.1363 20.4976H75.0659V33.0268L80.277 25.6232H85.0609L79.5081 33.3116L85.431 41H80.3909L75.0659 33.5963V41H71.1078Z" fill="#FFA500"/>
<path d="M92.5486 41V20.4976H101.205C101.405 20.4976 101.67 20.5071 102.003 20.526C102.344 20.5355 102.648 20.564 102.914 20.6115C104.138 20.8013 105.14 21.2047 105.918 21.8217C106.706 22.4387 107.285 23.217 107.655 24.1567C108.025 25.0869 108.21 26.1262 108.21 27.2748C108.21 28.4233 108.02 29.4674 107.641 30.4071C107.271 31.3373 106.691 32.1109 105.904 32.7278C105.125 33.3448 104.129 33.7482 102.914 33.938C102.648 33.976 102.344 34.0045 102.003 34.0235C101.661 34.0425 101.395 34.052 101.205 34.052H96.4213V41H92.5486ZM96.4213 30.4355H101.034C101.234 30.4355 101.452 30.4261 101.689 30.4071C101.927 30.3881 102.145 30.3501 102.344 30.2932C102.866 30.1508 103.27 29.9135 103.554 29.5813C103.839 29.2396 104.034 28.8646 104.138 28.4565C104.252 28.0389 104.309 27.6449 104.309 27.2748C104.309 26.9046 104.252 26.5154 104.138 26.1073C104.034 25.6896 103.839 25.3147 103.554 24.9825C103.27 24.6408 102.866 24.3987 102.344 24.2563C102.145 24.1994 101.927 24.1614 101.689 24.1424C101.452 24.1235 101.234 24.114 101.034 24.114H96.4213V30.4355ZM111.354 41V20.0704H115.226V41H111.354ZM123.766 41.4271C122.665 41.4271 121.73 41.2183 120.961 40.8007C120.202 40.3735 119.623 39.8088 119.224 39.1064C118.835 38.3945 118.641 37.6114 118.641 36.7571C118.641 36.0452 118.75 35.3951 118.968 34.8066C119.186 34.2181 119.537 33.7008 120.022 33.2546C120.515 32.799 121.175 32.4194 122.001 32.1156C122.57 31.9068 123.249 31.7217 124.037 31.5603C124.824 31.399 125.717 31.2471 126.713 31.1047C127.71 30.9529 128.806 30.7867 130.002 30.6064L128.607 31.3752C128.607 30.464 128.389 29.7948 127.952 29.3677C127.515 28.9406 126.785 28.727 125.759 28.727C125.19 28.727 124.597 28.8646 123.98 29.1399C123.363 29.4152 122.931 29.904 122.684 30.6064L119.182 29.4959C119.571 28.2239 120.302 27.1893 121.374 26.392C122.447 25.5947 123.908 25.196 125.759 25.196C127.117 25.196 128.322 25.4049 129.376 25.8225C130.429 26.2401 131.227 26.9615 131.768 27.9866C132.071 28.5562 132.252 29.1257 132.309 29.6952C132.366 30.2647 132.394 30.9007 132.394 31.603V41H129.006V37.8392L129.49 38.4941C128.74 39.5288 127.928 40.2786 127.055 40.7437C126.191 41.1993 125.095 41.4271 123.766 41.4271ZM124.592 38.3802C125.304 38.3802 125.902 38.2568 126.386 38.0101C126.879 37.7538 127.269 37.4643 127.553 37.1416C127.848 36.8188 128.047 36.5483 128.151 36.33C128.351 35.9124 128.465 35.4283 128.493 34.8777C128.531 34.3177 128.55 33.8526 128.55 33.4824L129.689 33.7672C128.541 33.957 127.61 34.1184 126.898 34.2513C126.187 34.3747 125.612 34.4886 125.176 34.593C124.739 34.6974 124.355 34.8113 124.022 34.9347C123.643 35.0866 123.334 35.2527 123.097 35.433C122.869 35.6039 122.698 35.7937 122.584 36.0025C122.48 36.2114 122.428 36.4439 122.428 36.7002C122.428 37.0514 122.513 37.3551 122.684 37.6114C122.864 37.8582 123.116 38.048 123.439 38.1809C123.761 38.3138 124.146 38.3802 124.592 38.3802ZM134.672 41V40.5159L142.219 28.9833H135.527V25.6232H148.198V26.1073L140.681 37.6399H147.914V41H134.672ZM154.744 41.4271C153.643 41.4271 152.708 41.2183 151.94 40.8007C151.18 40.3735 150.601 39.8088 150.203 39.1064C149.813 38.3945 149.619 37.6114 149.619 36.7571C149.619 36.0452 149.728 35.3951 149.946 34.8066C150.165 34.2181 150.516 33.7008 151 33.2546C151.493 32.799 152.153 32.4194 152.979 32.1156C153.548 31.9068 154.227 31.7217 155.015 31.5603C155.803 31.399 156.695 31.2471 157.692 31.1047C158.688 30.9529 159.785 30.7867 160.981 30.6064L159.585 31.3752C159.585 30.464 159.367 29.7948 158.93 29.3677C158.494 28.9406 157.763 28.727 156.738 28.727C156.168 28.727 155.575 28.8646 154.958 29.1399C154.341 29.4152 153.909 29.904 153.662 30.6064L150.16 29.4959C150.549 28.2239 151.28 27.1893 152.353 26.392C153.425 25.5947 154.887 25.196 156.738 25.196C158.095 25.196 159.301 25.4049 160.354 25.8225C161.408 26.2401 162.205 26.9615 162.746 27.9866C163.05 28.5562 163.23 29.1257 163.287 29.6952C163.344 30.2647 163.373 30.9007 163.373 31.603V41H159.984V37.8392L160.468 38.4941C159.718 39.5288 158.907 40.2786 158.033 40.7437C157.17 41.1993 156.073 41.4271 154.744 41.4271ZM155.57 38.3802C156.282 38.3802 156.88 38.2568 157.364 38.0101C157.858 37.7538 158.247 37.4643 158.532 37.1416C158.826 36.8188 159.025 36.5483 159.13 36.33C159.329 35.9124 159.443 35.4283 159.471 34.8777C159.509 34.3177 159.528 33.8526 159.528 33.4824L160.667 33.7672C159.519 33.957 158.589 34.1184 157.877 34.2513C157.165 34.3747 156.591 34.4886 156.154 34.593C155.717 34.6974 155.333 34.8113 155.001 34.9347C154.621 35.0866 154.313 35.2527 154.075 35.433C153.847 35.6039 153.677 35.7937 153.563 36.0025C153.458 36.2114 153.406 36.4439 153.406 36.7002C153.406 37.0514 153.492 37.3551 153.662 37.6114C153.843 37.8582 154.094 38.048 154.417 38.1809C154.74 38.3138 155.124 38.3802 155.57 38.3802Z" fill="black"/>
<path d="M168.34 30.5C168.34 30.8163 168.217 31.1195 167.998 31.3432C167.778 31.5668 167.481 31.6924 167.17 31.6924C166.86 31.6924 166.562 31.5668 166.343 31.3432C166.123 31.1195 166 30.8163 166 30.5C166 30.1838 166.123 29.8805 166.343 29.6569C166.562 29.4332 166.86 29.3076 167.17 29.3076C167.481 29.3076 167.778 29.4332 167.998 29.6569C168.217 29.8805 168.34 30.1838 168.34 30.5Z" fill="#474E5D"/>
</svg>
